<?xml version="1.0" encoding="UTF-8" standalone="no"?>
<svg
   xmlns:dc="http://purl.org/dc/elements/1.1/"
   xmlns:cc="http://creativecommons.org/ns#"
   xmlns:rdf="http://www.w3.org/1999/02/22-rdf-syntax-ns#"
   xmlns:svg="http://www.w3.org/2000/svg"
   xmlns="http://www.w3.org/2000/svg"
   xmlns:xlink="http://www.w3.org/1999/xlink"
   xmlns:sodipodi="http://sodipodi.sourceforge.net/DTD/sodipodi-0.dtd"
   xmlns:inkscape="http://www.inkscape.org/namespaces/inkscape"
   width="400"
   height="200"
   viewBox="0 0 400 200"
   version="1.1"
   id="svg99"
   sodipodi:docname="assets.svg"
   inkscape:version="0.92.3 (2405546, 2018-03-11)">
  <metadata
     id="metadata101">
    <rdf:RDF>
      <cc:Work
         rdf:about="">
        <dc:format>image/svg+xml</dc:format>
        <dc:type
           rdf:resource="http://purl.org/dc/dcmitype/StillImage" />
      </cc:Work>
    </rdf:RDF>
  </metadata>
  <sodipodi:namedview
     showgrid="true"
     id="namedview4"
     inkscape:zoom="3.0405592"
     inkscape:cx="158.9465"
     inkscape:cy="135.66156"
     inkscape:window-width="1855"
     inkscape:window-height="1020"
     inkscape:window-x="65"
     inkscape:window-y="27"
     inkscape:window-maximized="1"
     inkscape:current-layer="svg99">
    <inkscape:grid
       empspacing="4"
       id="grid2" />
  </sodipodi:namedview>
  <defs
     id="defs67">
    <linearGradient
       id="color-fg-inverse">
      <stop
         stop-color="#FFFFFF"
         id="stop6" />
    </linearGradient>
    <linearGradient
       id="color-divider">
      <stop
         stop-color="#000000"
         stop-opacity="0.12"
         id="stop9" />
    </linearGradient>
    <linearGradient
       id="color-divider-dark">
      <stop
         stop-color="#FFFFFF"
         stop-opacity="0.12"
         id="stop12" />
    </linearGradient>
    <linearGradient
       id="color-accent">
      <stop
         stop-color="#7C4DFF"
         id="stop15" />
    </linearGradient>
    <linearGradient
       id="color-bg">
      <stop
         stop-color="#F5F5F5"
         id="stop18" />
    </linearGradient>
    <linearGradient
       id="color-bg-dark">
      <stop
         stop-color="#323232"
         id="stop21" />
    </linearGradient>
    <linearGradient
       id="color-bg-button">
      <stop
         stop-color="#FAFAFA"
         id="stop24" />
    </linearGradient>
    <linearGradient
       id="color-bg-button-dark">
      <stop
         stop-color="#414141"
         id="stop27" />
    </linearGradient>
    <rect
       width="24"
       height="24"
       fill="none"
       stroke="none"
       id="24x24" />
    <circle
       cx="12"
       cy="12"
       r="6"
       stroke="none"
       id="slider-fill" />
    <circle
       cx="12"
       cy="12"
       r="5"
       fill="none"
       stroke-width="2"
       id="slider-stroke" />
    <path
       d="M12 6a6 6 0 0 0-6 6 6 6 0 0 0 6 6h6v-6a6 6 0 0 0-6-6z"
       stroke="none"
       id="marks-slider-fill" />
    <path
       d="M12 7a5 5 0 0 0-5 5 5 5 0 0 0 5 5h5v-5a5 5 0 0 0-5-5z"
       fill="none"
       stroke-width="2"
       id="marks-slider-stroke" />
    <g
       id="base-scale-slider">
      <use
         xlink:href="#24x24"
         id="use35" />
      <use
         xlink:href="#slider-fill"
         id="use37" />
      <use
         xlink:href="#slider-stroke"
         id="use39" />
    </g>
    <g
       id="base-scale-horz-marks-after-slider">
      <use
         xlink:href="#24x24"
         id="use42" />
      <use
         xlink:href="#marks-slider-fill"
         transform="rotate(45 12 12)"
         id="use44" />
      <use
         xlink:href="#marks-slider-stroke"
         transform="rotate(45 12 12)"
         id="use46" />
    </g>
    <use
       xlink:href="#base-scale-horz-marks-after-slider"
       id="base-scale-vert-marks-before-slider"
       transform="rotate(90 12 12)" />
    <use
       xlink:href="#base-scale-horz-marks-after-slider"
       id="base-scale-horz-marks-before-slider"
       transform="rotate(180 12 12)" />
    <use
       xlink:href="#base-scale-horz-marks-after-slider"
       id="base-scale-vert-marks-after-slider"
       transform="rotate(270 12 12)" />
    <rect
       width="40"
       height="40"
       fill="none"
       id="40x40" />
    <rect
       width="24"
       height="24"
       rx="2"
       id="button-fill" />
    <path
       d="M9 16.17L4.83 12l-1.42 1.41L9 19 21 7l-1.41-1.41z"
       id="check-path" />
    <g
       id="base-selectionmode-checkbox-unchecked">
      <use
         xlink:href="#40x40"
         id="use55" />
      <use
         xlink:href="#button-fill"
         transform="matrix(1.5 0 0 1.5 2 2)"
         id="use57" />
    </g>
    <g
       id="base-selectionmode-checkbox-checked">
      <use
         xlink:href="#40x40"
         id="use60" />
      <use
         xlink:href="#button-fill"
         transform="matrix(1.5 0 0 1.5 2 2)"
         fill="url(#color-accent)"
         id="use62" />
      <use
         xlink:href="#check-path"
         transform="matrix(1.5 0 0 1.5 2 2)"
         fill="url(#color-fg-inverse)"
         id="use64" />
    </g>
    <linearGradient
       inkscape:collect="always"
       xlink:href="#color-fg-secondary-dark"
       id="linearGradient1252"
       x1="2.0293853"
       y1="294.08945"
       x2="3.791255"
       y2="294.08945"
       gradientUnits="userSpaceOnUse" />
    <linearGradient
       id="color-fg-secondary-dark">
      <stop
         stop-color="#FFFFFF"
         stop-opacity="0.7"
         id="stop19" />
    </linearGradient>
    <linearGradient
       inkscape:collect="always"
       xlink:href="#color-fg-inverse"
       id="linearGradient1254"
       x1="1.6555581"
       y1="294.13474"
       x2="4.3522563"
       y2="294.13474"
       gradientUnits="userSpaceOnUse" />
    <linearGradient
       inkscape:collect="always"
       xlink:href="#color-fg-secondary"
       id="linearGradient1242"
       x1="2.0293853"
       y1="294.08945"
       x2="3.791255"
       y2="294.08945"
       gradientUnits="userSpaceOnUse" />
    <linearGradient
       id="color-fg-secondary">
      <stop
         stop-color="#000000"
         stop-opacity="0.54"
         id="stop16" />
    </linearGradient>
    <linearGradient
       inkscape:collect="always"
       xlink:href="#color-fg-inverse"
       id="linearGradient158"
       gradientUnits="userSpaceOnUse"
       x1="1.6555581"
       y1="294.13474"
       x2="4.3522563"
       y2="294.13474" />
    <linearGradient
       inkscape:collect="always"
       xlink:href="#color-fg-inverse"
       id="linearGradient160"
       gradientUnits="userSpaceOnUse"
       x1="1.6555581"
       y1="294.13474"
       x2="4.3522563"
       y2="294.13474" />
    <linearGradient
       inkscape:collect="always"
       xlink:href="#color-fg-secondary"
       id="linearGradient162"
       gradientUnits="userSpaceOnUse"
       x1="2.0293853"
       y1="294.08945"
       x2="3.791255"
       y2="294.08945" />
    <linearGradient
       inkscape:collect="always"
       xlink:href="#color-fg-inverse"
       id="linearGradient164"
       gradientUnits="userSpaceOnUse"
       x1="1.6555581"
       y1="294.13474"
       x2="4.3522563"
       y2="294.13474" />
    <linearGradient
       inkscape:collect="always"
       xlink:href="#color-fg-secondary-dark"
       id="linearGradient166"
       gradientUnits="userSpaceOnUse"
       x1="2.0293853"
       y1="294.08945"
       x2="3.791255"
       y2="294.08945" />
  </defs>
  <g
     id="light">
    <rect
       width="200"
       height="200"
       fill="url(#color-bg)"
       sodipodi:insensitive="true"
       id="rect69" />
    <use
       xlink:href="#base-scale-slider"
       transform="translate(8 8)"
       fill="url(#color-accent)"
       stroke="none"
       id="scale-slider" />
    <use
       xlink:href="#base-scale-slider"
       transform="translate(8 40)"
       fill="url(#color-bg)"
       stroke="url(#color-divider)"
       id="scale-slider-disabled" />
    <use
       xlink:href="#base-scale-horz-marks-before-slider"
       transform="translate(40 8)"
       fill="url(#color-accent)"
       stroke="none"
       id="scale-horz-marks-before-slider" />
    <use
       xlink:href="#base-scale-horz-marks-before-slider"
       transform="translate(40 40)"
       fill="url(#color-bg)"
       stroke="url(#color-divider)"
       id="scale-horz-marks-before-slider-disabled" />
    <use
       xlink:href="#base-scale-horz-marks-after-slider"
       transform="translate(72 8)"
       fill="url(#color-accent)"
       stroke="none"
       id="scale-horz-marks-after-slider" />
    <use
       xlink:href="#base-scale-horz-marks-after-slider"
       transform="translate(72 40)"
       fill="url(#color-bg)"
       stroke="url(#color-divider)"
       id="scale-horz-marks-after-slider-disabled" />
    <use
       xlink:href="#base-scale-vert-marks-before-slider"
       transform="translate(104 8)"
       fill="url(#color-accent)"
       stroke="none"
       id="scale-vert-marks-before-slider" />
    <use
       xlink:href="#base-scale-vert-marks-before-slider"
       transform="translate(104 40)"
       fill="url(#color-bg)"
       stroke="url(#color-divider)"
       id="scale-vert-marks-before-slider-disabled" />
    <use
       xlink:href="#base-scale-vert-marks-after-slider"
       transform="translate(136 8)"
       fill="url(#color-accent)"
       stroke="none"
       id="scale-vert-marks-after-slider" />
    <use
       xlink:href="#base-scale-vert-marks-after-slider"
       transform="translate(136 40)"
       fill="url(#color-bg)"
       stroke="url(#color-divider)"
       id="scale-vert-marks-after-slider-disabled" />
    <use
       xlink:href="#base-selectionmode-checkbox-unchecked"
       transform="translate(8 72)"
       fill="url(#color-bg-button)"
       id="selectionmode-checkbox-unchecked" />
    <use
       xlink:href="#base-selectionmode-checkbox-checked"
       transform="translate(56 72)"
       id="selectionmode-checkbox-checked" />
  </g>
  <g
     id="dark"
     transform="translate(200)">
    <rect
       width="200"
       height="200"
       fill="url(#color-bg-dark)"
       sodipodi:insensitive="true"
       id="rect84" />
    <use
       xlink:href="#base-scale-slider"
       transform="translate(8 8)"
       fill="url(#color-accent)"
       stroke="none"
       id="scale-slider-dark" />
    <use
       xlink:href="#base-scale-slider"
       transform="translate(8 40)"
       fill="url(#color-bg-dark)"
       stroke="url(#color-divider-dark)"
       id="scale-slider-disabled-dark" />
    <use
       xlink:href="#base-scale-horz-marks-before-slider"
       transform="translate(40 8)"
       fill="url(#color-accent)"
       stroke="none"
       id="scale-horz-marks-before-slider-dark" />
    <use
       xlink:href="#base-scale-horz-marks-before-slider"
       transform="translate(40 40)"
       fill="url(#color-bg-dark)"
       stroke="url(#color-divider-dark)"
       id="scale-horz-marks-before-slider-disabled-dark" />
    <use
       xlink:href="#base-scale-horz-marks-after-slider"
       transform="translate(72 8)"
       fill="url(#color-accent)"
       stroke="none"
       id="scale-horz-marks-after-slider-dark" />
    <use
       xlink:href="#base-scale-horz-marks-after-slider"
       transform="translate(72 40)"
       fill="url(#color-bg-dark)"
       stroke="url(#color-divider-dark)"
       id="scale-horz-marks-after-slider-disabled-dark" />
    <use
       xlink:href="#base-scale-vert-marks-before-slider"
       transform="translate(104 8)"
       fill="url(#color-accent)"
       stroke="none"
       id="scale-vert-marks-before-slider-dark" />
    <use
       xlink:href="#base-scale-vert-marks-before-slider"
       transform="translate(104 40)"
       fill="url(#color-bg-dark)"
       stroke="url(#color-divider-dark)"
       id="scale-vert-marks-before-slider-disabled-dark" />
    <use
       xlink:href="#base-scale-vert-marks-after-slider"
       transform="translate(136 8)"
       fill="url(#color-accent)"
       stroke="none"
       id="scale-vert-marks-after-slider-dark" />
    <use
       xlink:href="#base-scale-vert-marks-after-slider"
       transform="translate(136 40)"
       fill="url(#color-bg-dark)"
       stroke="url(#color-divider-dark)"
       id="scale-vert-marks-after-slider-disabled-dark" />
    <use
       xlink:href="#base-selectionmode-checkbox-unchecked"
       transform="translate(8 72)"
       fill="url(#color-bg-button-dark)"
       id="selectionmode-checkbox-unchecked-dark" />
    <use
       xlink:href="#base-selectionmode-checkbox-checked"
       transform="translate(56 72)"
       id="selectionmode-checkbox-checked-dark" />
  </g>
  <g
     transform="matrix(3.7795275,0,0,3.7795275,141.7072,-1021.8125)"
     id="switch-slider-checked"
     inkscape:label="Layer 1"
     style="fill:url(#linearGradient160);fill-opacity:1">
    <path
       inkscape:connector-curvature="0"
       style="opacity:1;fill:url(#linearGradient158);fill-opacity:1;fill-rule:evenodd;stroke:none;stroke-width:1.09544504;stroke-opacity:1"
       d="m 150.36328,197.8418 c -0.12781,0 -0.25558,0.0505 -0.35351,0.14843 l -5.30274,5.30274 -3.18164,-3.18164 c -0.19587,-0.19587 -0.51116,-0.19587 -0.70703,0 -0.19587,0.19587 -0.19587,0.51116 0,0.70703 l 3.53516,3.53516 c 0.1469,0.1469 0.3605,0.18282 0.54101,0.10937 0.0602,-0.0245 0.11705,-0.0604 0.16602,-0.10937 l 5.65625,-5.65625 c 0.19587,-0.19587 0.19587,-0.51117 0,-0.70704 -0.0979,-0.0979 -0.22571,-0.14843 -0.35352,-0.14843 z"
       transform="matrix(0.26458334,0,0,0.26458334,-35.563766,240.9083)"
       id="rect4570" />
  </g>
  <g
     transform="matrix(3.7795275,0,0,3.7795275,114.92517,-1021.313)"
     id="switch-slider-unchecked"
     inkscape:label="Layer 1"
     style="fill:url(#linearGradient1242);fill-opacity:1">
    <path
       inkscape:connector-curvature="0"
       style="opacity:1;fill:url(#linearGradient162);fill-opacity:1;fill-rule:evenodd;stroke:none;stroke-width:1.34164059;stroke-opacity:1"
       d="m 115.80469,198.16992 c -0.12781,0 -0.25754,0.0505 -0.35547,0.14844 -0.19587,0.19587 -0.19587,0.51116 0,0.70703 l 2.47656,2.47461 -2.47461,2.47461 c -0.19587,0.19587 -0.19587,0.51116 0,0.70703 0.19587,0.19587 0.51116,0.19587 0.70703,0 l 2.47461,-2.47461 2.47461,2.47461 c 0.19587,0.19587 0.51116,0.19587 0.70703,0 0.19587,-0.19587 0.19587,-0.51116 0,-0.70703 l -2.47461,-2.47461 2.47461,-2.47461 c 0.19587,-0.19587 0.19587,-0.51116 0,-0.70703 -0.19587,-0.19587 -0.51116,-0.19587 -0.70703,0 l -2.47461,2.47461 -2.47461,-2.47461 c -0.0979,-0.0979 -0.2257,-0.14844 -0.35351,-0.14844 z"
       transform="matrix(0.26458334,0,0,0.26458334,-28.477687,240.77612)"
       id="rect4584" />
  </g>
  <g
     inkscape:label="Layer 1"
     id="switch-slider-checked-dark"
     transform="matrix(3.7795275,0,0,3.7795275,341.00017,-1021.8125)"
     style="fill:url(#linearGradient1254);fill-opacity:1">
    <path
       id="path1228"
       transform="matrix(0.26458334,0,0,0.26458334,-35.563766,240.9083)"
       d="m 150.36328,197.8418 c -0.12781,0 -0.25558,0.0505 -0.35351,0.14843 l -5.30274,5.30274 -3.18164,-3.18164 c -0.19587,-0.19587 -0.51116,-0.19587 -0.70703,0 -0.19587,0.19587 -0.19587,0.51116 0,0.70703 l 3.53516,3.53516 c 0.1469,0.1469 0.3605,0.18282 0.54101,0.10937 0.0602,-0.0245 0.11705,-0.0604 0.16602,-0.10937 l 5.65625,-5.65625 c 0.19587,-0.19587 0.19587,-0.51117 0,-0.70704 -0.0979,-0.0979 -0.22571,-0.14843 -0.35352,-0.14843 z"
       style="opacity:1;fill:url(#linearGradient164);fill-opacity:1;fill-rule:evenodd;stroke:none;stroke-width:1.09544504;stroke-opacity:1"
       inkscape:connector-curvature="0" />
  </g>
  <g
     inkscape:label="Layer 1"
     id="switch-slider-unchecked-dark"
     transform="matrix(3.7795275,0,0,3.7795275,314.21814,-1021.313)"
     style="fill:url(#linearGradient1252);fill-opacity:1">
    <path
       id="path1232"
       transform="matrix(0.26458334,0,0,0.26458334,-28.477687,240.77612)"
       d="m 115.80469,198.16992 c -0.12781,0 -0.25754,0.0505 -0.35547,0.14844 -0.19587,0.19587 -0.19587,0.51116 0,0.70703 l 2.47656,2.47461 -2.47461,2.47461 c -0.19587,0.19587 -0.19587,0.51116 0,0.70703 0.19587,0.19587 0.51116,0.19587 0.70703,0 l 2.47461,-2.47461 2.47461,2.47461 c 0.19587,0.19587 0.51116,0.19587 0.70703,0 0.19587,-0.19587 0.19587,-0.51116 0,-0.70703 l -2.47461,-2.47461 2.47461,-2.47461 c 0.19587,-0.19587 0.19587,-0.51116 0,-0.70703 -0.19587,-0.19587 -0.51116,-0.19587 -0.70703,0 l -2.47461,2.47461 -2.47461,-2.47461 c -0.0979,-0.0979 -0.2257,-0.14844 -0.35351,-0.14844 z"
       style="opacity:1;fill:url(#linearGradient166);fill-opacity:1;fill-rule:evenodd;stroke:none;stroke-width:1.34164059;stroke-opacity:1"
       inkscape:connector-curvature="0" />
  </g>
</svg>
