<?xml version="1.0" encoding="UTF-8" standalone="no"?>
<svg
   xmlns:dc="http://purl.org/dc/elements/1.1/"
   xmlns:cc="http://creativecommons.org/ns#"
   xmlns:rdf="http://www.w3.org/1999/02/22-rdf-syntax-ns#"
   xmlns:svg="http://www.w3.org/2000/svg"
   xmlns="http://www.w3.org/2000/svg"
   xmlns:xlink="http://www.w3.org/1999/xlink"
   xmlns:sodipodi="http://sodipodi.sourceforge.net/DTD/sodipodi-0.dtd"
   xmlns:inkscape="http://www.inkscape.org/namespaces/inkscape"
   width="400"
   height="200"
   viewBox="0 0 400 200"
   version="1.1"
   id="svg99"
   sodipodi:docname="assets.svg"
   inkscape:version="1.0.1 (3bc2e813f5, 2020-09-07)">
  <metadata
     id="metadata101">
    <rdf:RDF>
      <cc:Work
         rdf:about="">
        <dc:format>image/svg+xml</dc:format>
        <dc:type
           rdf:resource="http://purl.org/dc/dcmitype/StillImage" />
        <dc:title></dc:title>
      </cc:Work>
    </rdf:RDF>
  </metadata>
  <sodipodi:namedview
     showgrid="false"
     id="namedview4"
     inkscape:zoom="1.5202796"
     inkscape:cx="173.75028"
     inkscape:cy="136.09328"
     inkscape:window-width="1920"
     inkscape:window-height="1020"
     inkscape:window-x="0"
     inkscape:window-y="28"
     inkscape:window-maximized="1"
     inkscape:current-layer="svg99"
     inkscape:document-rotation="0">
    <inkscape:grid
       empspacing="4"
       id="grid2" />
  </sodipodi:namedview>
  <defs
     id="defs67">
    <linearGradient
       id="color-fg-inverse">
      <stop
         stop-color="#FFFFFF"
         id="stop6" />
    </linearGradient>
    <linearGradient
       id="color-divider">
      <stop
         stop-color="#000000"
         stop-opacity="0.12"
         id="stop9" />
    </linearGradient>
    <linearGradient
       id="color-divider-dark">
      <stop
         stop-color="#FFFFFF"
         stop-opacity="0.12"
         id="stop12" />
    </linearGradient>
    <linearGradient
       id="color-accent">
      <stop
         stop-color="#7C4DFF"
         id="stop15" />
    </linearGradient>
    <linearGradient
       id="color-bg">
      <stop
         stop-color="#F5F5F5"
         id="stop18" />
    </linearGradient>
    <linearGradient
       id="color-bg-dark">
      <stop
         stop-color="#323232"
         id="stop21" />
    </linearGradient>
    <linearGradient
       id="color-bg-button">
      <stop
         stop-color="#FAFAFA"
         id="stop24" />
    </linearGradient>
    <linearGradient
       id="color-bg-button-dark">
      <stop
         stop-color="#414141"
         id="stop27" />
    </linearGradient>
    <rect
       width="24"
       height="24"
       fill="none"
       stroke="none"
       id="24x24" />
    <circle
       cx="12"
       cy="12"
       r="6"
       stroke="none"
       id="slider-fill" />
    <circle
       cx="12"
       cy="12"
       r="5"
       fill="none"
       stroke-width="2"
       id="slider-stroke" />
    <path
       d="M12 6a6 6 0 0 0-6 6 6 6 0 0 0 6 6h6v-6a6 6 0 0 0-6-6z"
       stroke="none"
       id="marks-slider-fill" />
    <path
       d="M12 7a5 5 0 0 0-5 5 5 5 0 0 0 5 5h5v-5a5 5 0 0 0-5-5z"
       fill="none"
       stroke-width="2"
       id="marks-slider-stroke" />
    <g
       id="base-scale-slider">
      <use
         xlink:href="#24x24"
         id="use35" />
      <use
         xlink:href="#slider-fill"
         id="use37" />
      <use
         xlink:href="#slider-stroke"
         id="use39" />
    </g>
    <g
       id="base-scale-horz-marks-after-slider">
      <use
         xlink:href="#24x24"
         id="use42" />
      <use
         xlink:href="#marks-slider-fill"
         transform="rotate(45 12 12)"
         id="use44" />
      <use
         xlink:href="#marks-slider-stroke"
         transform="rotate(45 12 12)"
         id="use46" />
    </g>
    <use
       xlink:href="#base-scale-horz-marks-after-slider"
       id="base-scale-vert-marks-before-slider"
       transform="rotate(90 12 12)" />
    <use
       xlink:href="#base-scale-horz-marks-after-slider"
       id="base-scale-horz-marks-before-slider"
       transform="rotate(180 12 12)" />
    <use
       xlink:href="#base-scale-horz-marks-after-slider"
       id="base-scale-vert-marks-after-slider"
       transform="rotate(270 12 12)" />
    <rect
       width="40"
       height="40"
       fill="none"
       id="40x40" />
    <rect
       width="24"
       height="24"
       rx="2"
       id="button-fill" />
    <path
       d="M9 16.17L4.83 12l-1.42 1.41L9 19 21 7l-1.41-1.41z"
       id="check-path" />
    <g
       id="base-selectionmode-checkbox-unchecked">
      <use
         xlink:href="#40x40"
         id="use55" />
      <use
         xlink:href="#button-fill"
         transform="matrix(1.5 0 0 1.5 2 2)"
         id="use57" />
    </g>
    <g
       id="base-selectionmode-checkbox-checked">
      <use
         xlink:href="#40x40"
         id="use60" />
      <use
         xlink:href="#button-fill"
         transform="matrix(1.5 0 0 1.5 2 2)"
         fill="url(#color-accent)"
         id="use62" />
      <use
         xlink:href="#check-path"
         transform="matrix(1.5 0 0 1.5 2 2)"
         fill="url(#color-fg-inverse)"
         id="use64" />
    </g>
    <linearGradient
       inkscape:collect="always"
       xlink:href="#color-fg-secondary-dark"
       id="linearGradient1252"
       x1="2.0293853"
       y1="294.08945"
       x2="3.791255"
       y2="294.08945"
       gradientUnits="userSpaceOnUse" />
    <linearGradient
       id="color-fg-secondary-dark">
      <stop
         stop-color="#FFFFFF"
         stop-opacity="0.7"
         id="stop19" />
    </linearGradient>
    <linearGradient
       inkscape:collect="always"
       xlink:href="#color-fg-inverse"
       id="linearGradient1254"
       x1="1.6555581"
       y1="294.13474"
       x2="4.3522563"
       y2="294.13474"
       gradientUnits="userSpaceOnUse" />
    <linearGradient
       inkscape:collect="always"
       xlink:href="#color-fg-secondary"
       id="linearGradient1242"
       x1="2.0293853"
       y1="294.08945"
       x2="3.791255"
       y2="294.08945"
       gradientUnits="userSpaceOnUse" />
    <linearGradient
       id="color-fg-secondary">
      <stop
         stop-color="#000000"
         stop-opacity="0.54"
         id="stop16" />
    </linearGradient>
    <linearGradient
       inkscape:collect="always"
       xlink:href="#color-fg-inverse"
       id="linearGradient158"
       gradientUnits="userSpaceOnUse"
       x1="1.6555581"
       y1="294.13474"
       x2="4.3522563"
       y2="294.13474" />
    <linearGradient
       inkscape:collect="always"
       xlink:href="#color-fg-inverse"
       id="linearGradient160"
       gradientUnits="userSpaceOnUse"
       x1="1.6555581"
       y1="294.13474"
       x2="4.3522563"
       y2="294.13474" />
    <linearGradient
       inkscape:collect="always"
       xlink:href="#color-fg-secondary"
       id="linearGradient162"
       gradientUnits="userSpaceOnUse"
       x1="2.0293853"
       y1="294.08945"
       x2="3.791255"
       y2="294.08945" />
    <linearGradient
       inkscape:collect="always"
       xlink:href="#color-fg-inverse"
       id="linearGradient164"
       gradientUnits="userSpaceOnUse"
       x1="1.6555581"
       y1="294.13474"
       x2="4.3522563"
       y2="294.13474" />
    <linearGradient
       inkscape:collect="always"
       xlink:href="#color-fg-secondary-dark"
       id="linearGradient166"
       gradientUnits="userSpaceOnUse"
       x1="2.0293853"
       y1="294.08945"
       x2="3.791255"
       y2="294.08945" />
    <linearGradient
       id="a"
       x1="48.979"
       x2="48.979"
       y1="92.934998"
       y2="105.64"
       gradientUnits="userSpaceOnUse"
       gradientTransform="matrix(3.7795276,0,0,3.7795276,-146.99335,-222.29311)">
      <stop
         stop-color="#716ffb"
         offset="0"
         id="stop2" />
      <stop
         stop-color="#6c6af2"
         offset="1"
         id="stop4" />
    </linearGradient>
  </defs>
  <g
     id="light">
    <rect
       width="200"
       height="200"
       fill="url(#color-bg)"
       sodipodi:insensitive="true"
       id="rect69" />
    <use
       xlink:href="#base-scale-slider"
       transform="translate(8 8)"
       fill="url(#color-accent)"
       stroke="none"
       id="scale-slider" />
    <use
       xlink:href="#base-scale-slider"
       transform="translate(8 40)"
       fill="url(#color-bg)"
       stroke="url(#color-divider)"
       id="scale-slider-disabled" />
    <use
       xlink:href="#base-scale-horz-marks-before-slider"
       transform="translate(40 8)"
       fill="url(#color-accent)"
       stroke="none"
       id="scale-horz-marks-before-slider" />
    <use
       xlink:href="#base-scale-horz-marks-before-slider"
       transform="translate(40 40)"
       fill="url(#color-bg)"
       stroke="url(#color-divider)"
       id="scale-horz-marks-before-slider-disabled" />
    <use
       xlink:href="#base-scale-horz-marks-after-slider"
       transform="translate(72 8)"
       fill="url(#color-accent)"
       stroke="none"
       id="scale-horz-marks-after-slider" />
    <use
       xlink:href="#base-scale-horz-marks-after-slider"
       transform="translate(72 40)"
       fill="url(#color-bg)"
       stroke="url(#color-divider)"
       id="scale-horz-marks-after-slider-disabled" />
    <use
       xlink:href="#base-scale-vert-marks-before-slider"
       transform="translate(104 8)"
       fill="url(#color-accent)"
       stroke="none"
       id="scale-vert-marks-before-slider" />
    <use
       xlink:href="#base-scale-vert-marks-before-slider"
       transform="translate(104 40)"
       fill="url(#color-bg)"
       stroke="url(#color-divider)"
       id="scale-vert-marks-before-slider-disabled" />
    <use
       xlink:href="#base-scale-vert-marks-after-slider"
       transform="translate(136 8)"
       fill="url(#color-accent)"
       stroke="none"
       id="scale-vert-marks-after-slider" />
    <use
       xlink:href="#base-scale-vert-marks-after-slider"
       transform="translate(136 40)"
       fill="url(#color-bg)"
       stroke="url(#color-divider)"
       id="scale-vert-marks-after-slider-disabled" />
    <use
       xlink:href="#base-selectionmode-checkbox-unchecked"
       transform="translate(8 72)"
       fill="url(#color-bg-button)"
       id="selectionmode-checkbox-unchecked" />
    <use
       xlink:href="#base-selectionmode-checkbox-checked"
       transform="translate(56 72)"
       id="selectionmode-checkbox-checked" />
  </g>
  <g
     id="dark"
     transform="translate(200)">
    <rect
       width="200"
       height="200"
       fill="url(#color-bg-dark)"
       sodipodi:insensitive="true"
       id="rect84" />
    <use
       xlink:href="#base-scale-slider"
       transform="translate(8 8)"
       fill="url(#color-accent)"
       stroke="none"
       id="scale-slider-dark" />
    <use
       xlink:href="#base-scale-slider"
       transform="translate(8 40)"
       fill="url(#color-bg-dark)"
       stroke="url(#color-divider-dark)"
       id="scale-slider-disabled-dark" />
    <use
       xlink:href="#base-scale-horz-marks-before-slider"
       transform="translate(40 8)"
       fill="url(#color-accent)"
       stroke="none"
       id="scale-horz-marks-before-slider-dark" />
    <use
       xlink:href="#base-scale-horz-marks-before-slider"
       transform="translate(40 40)"
       fill="url(#color-bg-dark)"
       stroke="url(#color-divider-dark)"
       id="scale-horz-marks-before-slider-disabled-dark" />
    <use
       xlink:href="#base-scale-horz-marks-after-slider"
       transform="translate(72 8)"
       fill="url(#color-accent)"
       stroke="none"
       id="scale-horz-marks-after-slider-dark" />
    <use
       xlink:href="#base-scale-horz-marks-after-slider"
       transform="translate(72 40)"
       fill="url(#color-bg-dark)"
       stroke="url(#color-divider-dark)"
       id="scale-horz-marks-after-slider-disabled-dark" />
    <use
       xlink:href="#base-scale-vert-marks-before-slider"
       transform="translate(104 8)"
       fill="url(#color-accent)"
       stroke="none"
       id="scale-vert-marks-before-slider-dark" />
    <use
       xlink:href="#base-scale-vert-marks-before-slider"
       transform="translate(104 40)"
       fill="url(#color-bg-dark)"
       stroke="url(#color-divider-dark)"
       id="scale-vert-marks-before-slider-disabled-dark" />
    <use
       xlink:href="#base-scale-vert-marks-after-slider"
       transform="translate(136 8)"
       fill="url(#color-accent)"
       stroke="none"
       id="scale-vert-marks-after-slider-dark" />
    <use
       xlink:href="#base-scale-vert-marks-after-slider"
       transform="translate(136 40)"
       fill="url(#color-bg-dark)"
       stroke="url(#color-divider-dark)"
       id="scale-vert-marks-after-slider-disabled-dark" />
    <use
       xlink:href="#base-selectionmode-checkbox-unchecked"
       transform="translate(8 72)"
       fill="url(#color-bg-button-dark)"
       id="selectionmode-checkbox-unchecked-dark" />
    <use
       xlink:href="#base-selectionmode-checkbox-checked"
       transform="translate(56 72)"
       id="selectionmode-checkbox-checked-dark" />
  </g>
  <g
     transform="matrix(3.7795275,0,0,3.7795275,141.7072,-1021.8125)"
     id="switch-slider-checked"
     inkscape:label="Layer 1"
     style="fill:url(#linearGradient160);fill-opacity:1">
    <path
       inkscape:connector-curvature="0"
       style="opacity:1;fill:url(#linearGradient158);fill-opacity:1;fill-rule:evenodd;stroke:none;stroke-width:1.09544504;stroke-opacity:1"
       d="m 150.36328,197.8418 c -0.12781,0 -0.25558,0.0505 -0.35351,0.14843 l -5.30274,5.30274 -3.18164,-3.18164 c -0.19587,-0.19587 -0.51116,-0.19587 -0.70703,0 -0.19587,0.19587 -0.19587,0.51116 0,0.70703 l 3.53516,3.53516 c 0.1469,0.1469 0.3605,0.18282 0.54101,0.10937 0.0602,-0.0245 0.11705,-0.0604 0.16602,-0.10937 l 5.65625,-5.65625 c 0.19587,-0.19587 0.19587,-0.51117 0,-0.70704 -0.0979,-0.0979 -0.22571,-0.14843 -0.35352,-0.14843 z"
       transform="matrix(0.26458334,0,0,0.26458334,-35.563766,240.9083)"
       id="rect4570" />
  </g>
  <g
     transform="matrix(3.7795275,0,0,3.7795275,114.92517,-1021.313)"
     id="switch-slider-unchecked"
     inkscape:label="Layer 1"
     style="fill:url(#linearGradient1242);fill-opacity:1">
    <path
       inkscape:connector-curvature="0"
       style="opacity:1;fill:url(#linearGradient162);fill-opacity:1;fill-rule:evenodd;stroke:none;stroke-width:1.34164059;stroke-opacity:1"
       d="m 115.80469,198.16992 c -0.12781,0 -0.25754,0.0505 -0.35547,0.14844 -0.19587,0.19587 -0.19587,0.51116 0,0.70703 l 2.47656,2.47461 -2.47461,2.47461 c -0.19587,0.19587 -0.19587,0.51116 0,0.70703 0.19587,0.19587 0.51116,0.19587 0.70703,0 l 2.47461,-2.47461 2.47461,2.47461 c 0.19587,0.19587 0.51116,0.19587 0.70703,0 0.19587,-0.19587 0.19587,-0.51116 0,-0.70703 l -2.47461,-2.47461 2.47461,-2.47461 c 0.19587,-0.19587 0.19587,-0.51116 0,-0.70703 -0.19587,-0.19587 -0.51116,-0.19587 -0.70703,0 l -2.47461,2.47461 -2.47461,-2.47461 c -0.0979,-0.0979 -0.2257,-0.14844 -0.35351,-0.14844 z"
       transform="matrix(0.26458334,0,0,0.26458334,-28.477687,240.77612)"
       id="rect4584" />
  </g>
  <g
     inkscape:label="Layer 1"
     id="switch-slider-checked-dark"
     transform="matrix(3.7795275,0,0,3.7795275,341.00017,-1021.8125)"
     style="fill:url(#linearGradient1254);fill-opacity:1">
    <path
       id="path1228"
       transform="matrix(0.26458334,0,0,0.26458334,-35.563766,240.9083)"
       d="m 150.36328,197.8418 c -0.12781,0 -0.25558,0.0505 -0.35351,0.14843 l -5.30274,5.30274 -3.18164,-3.18164 c -0.19587,-0.19587 -0.51116,-0.19587 -0.70703,0 -0.19587,0.19587 -0.19587,0.51116 0,0.70703 l 3.53516,3.53516 c 0.1469,0.1469 0.3605,0.18282 0.54101,0.10937 0.0602,-0.0245 0.11705,-0.0604 0.16602,-0.10937 l 5.65625,-5.65625 c 0.19587,-0.19587 0.19587,-0.51117 0,-0.70704 -0.0979,-0.0979 -0.22571,-0.14843 -0.35352,-0.14843 z"
       style="opacity:1;fill:url(#linearGradient164);fill-opacity:1;fill-rule:evenodd;stroke:none;stroke-width:1.09544504;stroke-opacity:1"
       inkscape:connector-curvature="0" />
  </g>
  <g
     inkscape:label="Layer 1"
     id="switch-slider-unchecked-dark"
     transform="matrix(3.7795275,0,0,3.7795275,314.21814,-1021.313)"
     style="fill:url(#linearGradient1252);fill-opacity:1">
    <path
       id="path1232"
       transform="matrix(0.26458334,0,0,0.26458334,-28.477687,240.77612)"
       d="m 115.80469,198.16992 c -0.12781,0 -0.25754,0.0505 -0.35547,0.14844 -0.19587,0.19587 -0.19587,0.51116 0,0.70703 l 2.47656,2.47461 -2.47461,2.47461 c -0.19587,0.19587 -0.19587,0.51116 0,0.70703 0.19587,0.19587 0.51116,0.19587 0.70703,0 l 2.47461,-2.47461 2.47461,2.47461 c 0.19587,0.19587 0.51116,0.19587 0.70703,0 0.19587,-0.19587 0.19587,-0.51116 0,-0.70703 l -2.47461,-2.47461 2.47461,-2.47461 c 0.19587,-0.19587 0.19587,-0.51116 0,-0.70703 -0.19587,-0.19587 -0.51116,-0.19587 -0.70703,0 l -2.47461,2.47461 -2.47461,-2.47461 c -0.0979,-0.0979 -0.2257,-0.14844 -0.35351,-0.14844 z"
       style="opacity:1;fill:url(#linearGradient166);fill-opacity:1;fill-rule:evenodd;stroke:none;stroke-width:1.34164059;stroke-opacity:1"
       inkscape:connector-curvature="0" />
  </g>
  <g
     id="header-icon">
    <rect
       x="14.124141"
       y="128.95729"
       width="48"
       height="48"
       rx="0"
       style="fill:url(#a);fill-rule:evenodd;stroke-width:3.77953;paint-order:stroke fill markers"
       id="rect9" />
    <g
       id="g834"
       transform="matrix(3.7795276,0,0,3.7795276,14.124133,130.29822)">
      <path
         inkscape:connector-curvature="0"
         id="path26"
         style="fill:#f9f9f9;fill-opacity:1;fill-rule:nonzero;stroke:none;stroke-width:0.352778"
         d="m 6.35,5.3164489 c 0.05508,-0.055633 0.1258665,-0.1118246 0.2016466,-0.088185 0.087432,0.031147 0.143707,0.1249854 0.1950946,0.2086331 0.1688105,0.3043255 0.3510582,0.5986046 0.5525839,0.8734752 0.2800294,0.4830895 0.5635241,0.9644866 0.877933,1.417149 0.073041,0.1057208 0.150486,0.2070666 0.2310326,0.3047395 0.043534,0.05675 0.1000366,0.1051628 0.1213421,0.1807446 -0.047,-0.00452 -0.089111,-0.030841 -0.1298008,-0.057038 C 8.2378157,8.0510933 8.0831532,7.9312031 7.9308818,7.8074961 7.8290598,7.721706 7.7424453,7.6094676 7.6302731,7.5416637 c -0.028191,-0.019247 -0.060558,-0.022793 -0.092198,-0.019391 -0.023077,0.038925 -0.027358,0.087627 -0.02082,0.1337533 0.016177,0.1340596 0.058893,0.2605933 0.098735,0.3865688 0.00846,0.024054 0.00785,0.050394 0.00822,0.076014 -0.05711,0.013431 -0.109088,-0.02562 -0.1576308,-0.055633 C 7.2937263,7.9402593 7.1365823,7.7879616 6.9906056,7.6234749 6.8465508,7.4618329 6.6919035,7.3105254 6.5197639,7.1930478 6.4838258,7.1735131 6.4394593,7.1378468 6.4009186,7.1626026 c -0.01784,0.039069 0.00607,0.084656 0.018082,0.1223028 0.062933,0.1470585 0.1483372,0.2782733 0.2206673,0.4186882 C 6.7683942,7.9493154 6.8956831,8.1982959 6.9885926,8.466667 6.7925454,8.283636 6.6035034,8.0902886 6.4185169,7.891846 6.28112,7.7493064 6.1527567,7.5945961 6.0105933,7.4587182 5.9399428,7.3939029 5.8639206,7.3282236 5.773629,7.3113716 5.6840486,7.2942495 5.5961328,7.3358573 5.5186881,7.385261 5.4141272,7.4543431 5.3168145,7.5374147 5.2191386,7.6193699 5.1260022,7.7017573 5.0307021,7.7827223 4.9494593,7.8819436 4.905804,7.9480372 4.8244251,7.9661674 4.7591162,7.9439321 4.7024929,7.926522 4.6823827,7.8489599 4.6289674,7.8253203 4.5702105,7.7968736 4.5034641,7.8179566 4.4501698,7.8533528 4.329312,7.9378468 4.2086811,8.0230608 4.0870969,8.1064203 4.4383973,7.6970762 4.7901667,7.2883081 5.1356261,6.8720144 5.4492179,6.4941056 5.7613722,6.1134781 6.0485439,5.7065465 6.1459777,5.5733512 6.2388871,5.4342145 6.35,5.3164489" />
      <path
         sodipodi:nodetypes="ccccccccccccccccc"
         inkscape:connector-curvature="0"
         id="path30"
         style="fill:#f9f9f9;fill-opacity:1;fill-rule:nonzero;stroke:none;stroke-width:0.352778"
         d="M 7.6144542,6.2426041 C 7.8057506,6.0667992 8.0055967,5.8898828 8.1972413,5.7147767 c 0.2482829,0.4216489 0.5151022,0.8290245 0.8002614,1.2184054 0.14121,0.1925591 0.2921651,0.3750903 0.4449209,0.5555773 0.196169,0.2362352 0.387571,0.477694 0.5757814,0.7225771 0.06495,0.087352 0.138698,0.1655149 0.201162,0.2553302 -0.02153,-0.00851 -0.04272,-0.017855 -0.06174,-0.032005 C 10.039737,8.3475884 9.9256426,8.2536499 9.8088256,8.1647778 9.6496536,8.055308 9.5098813,7.9137102 9.355703,7.7955925 9.2614772,7.7222517 9.165829,7.645871 9.0562746,7.6070167 c -0.030218,-0.010033 -0.078277,-0.00605 -0.082801,0.039413 -0.00619,0.085011 0.031641,0.1631738 0.049375,0.2437824 0.018793,0.082967 0.080398,0.2997053 0.038886,0.3570161 C 8.9852534,8.2306617 8.8514914,8.1063923 8.8194882,8.0746653 8.5187582,7.7576654 8.3248082,7.509032 8.0443796,7.1114504 7.925326,6.9337249 7.8111664,6.7259903 7.6659509,6.5025266 7.6315715,6.4409957 7.5770023,6.3693191 7.5716458,6.299682" />
    </g>
  </g>
  <g
     id="header-icon-alt"
     transform="translate(198.49154)"
     style="opacity:0.75">
    <rect
       x="14.124141"
       y="128.95729"
       width="48"
       height="48"
       rx="0"
       style="fill:none;fill-rule:evenodd;stroke-width:3.77953;paint-order:stroke fill markers"
       id="rect944" />
    <g
       id="g950"
       transform="matrix(3.7795276,0,0,3.7795276,14.124133,130.29822)">
      <path
         inkscape:connector-curvature="0"
         id="path946"
         style="fill:#f9f9f9;fill-opacity:1;fill-rule:nonzero;stroke:none;stroke-width:0.352778"
         d="m 6.35,5.3164489 c 0.05508,-0.055633 0.1258665,-0.1118246 0.2016466,-0.088185 0.087432,0.031147 0.143707,0.1249854 0.1950946,0.2086331 0.1688105,0.3043255 0.3510582,0.5986046 0.5525839,0.8734752 0.2800294,0.4830895 0.5635241,0.9644866 0.877933,1.417149 0.073041,0.1057208 0.150486,0.2070666 0.2310326,0.3047395 0.043534,0.05675 0.1000366,0.1051628 0.1213421,0.1807446 -0.047,-0.00452 -0.089111,-0.030841 -0.1298008,-0.057038 C 8.2378157,8.0510933 8.0831532,7.9312031 7.9308818,7.8074961 7.8290598,7.721706 7.7424453,7.6094676 7.6302731,7.5416637 c -0.028191,-0.019247 -0.060558,-0.022793 -0.092198,-0.019391 -0.023077,0.038925 -0.027358,0.087627 -0.02082,0.1337533 0.016177,0.1340596 0.058893,0.2605933 0.098735,0.3865688 0.00846,0.024054 0.00785,0.050394 0.00822,0.076014 -0.05711,0.013431 -0.109088,-0.02562 -0.1576308,-0.055633 C 7.2937263,7.9402593 7.1365823,7.7879616 6.9906056,7.6234749 6.8465508,7.4618329 6.6919035,7.3105254 6.5197639,7.1930478 6.4838258,7.1735131 6.4394593,7.1378468 6.4009186,7.1626026 c -0.01784,0.039069 0.00607,0.084656 0.018082,0.1223028 0.062933,0.1470585 0.1483372,0.2782733 0.2206673,0.4186882 C 6.7683942,7.9493154 6.8956831,8.1982959 6.9885926,8.466667 6.7925454,8.283636 6.6035034,8.0902886 6.4185169,7.891846 6.28112,7.7493064 6.1527567,7.5945961 6.0105933,7.4587182 5.9399428,7.3939029 5.8639206,7.3282236 5.773629,7.3113716 5.6840486,7.2942495 5.5961328,7.3358573 5.5186881,7.385261 5.4141272,7.4543431 5.3168145,7.5374147 5.2191386,7.6193699 5.1260022,7.7017573 5.0307021,7.7827223 4.9494593,7.8819436 4.905804,7.9480372 4.8244251,7.9661674 4.7591162,7.9439321 4.7024929,7.926522 4.6823827,7.8489599 4.6289674,7.8253203 4.5702105,7.7968736 4.5034641,7.8179566 4.4501698,7.8533528 4.329312,7.9378468 4.2086811,8.0230608 4.0870969,8.1064203 4.4383973,7.6970762 4.7901667,7.2883081 5.1356261,6.8720144 5.4492179,6.4941056 5.7613722,6.1134781 6.0485439,5.7065465 6.1459777,5.5733512 6.2388871,5.4342145 6.35,5.3164489" />
      <path
         sodipodi:nodetypes="ccccccccccccccccc"
         inkscape:connector-curvature="0"
         id="path948"
         style="fill:#f9f9f9;fill-opacity:1;fill-rule:nonzero;stroke:none;stroke-width:0.352778"
         d="M 7.6144542,6.2426041 C 7.8057506,6.0667992 8.0055967,5.8898828 8.1972413,5.7147767 c 0.2482829,0.4216489 0.5151022,0.8290245 0.8002614,1.2184054 0.14121,0.1925591 0.2921651,0.3750903 0.4449209,0.5555773 0.196169,0.2362352 0.387571,0.477694 0.5757814,0.7225771 0.06495,0.087352 0.138698,0.1655149 0.201162,0.2553302 -0.02153,-0.00851 -0.04272,-0.017855 -0.06174,-0.032005 C 10.039737,8.3475884 9.9256426,8.2536499 9.8088256,8.1647778 9.6496536,8.055308 9.5098813,7.9137102 9.355703,7.7955925 9.2614772,7.7222517 9.165829,7.645871 9.0562746,7.6070167 c -0.030218,-0.010033 -0.078277,-0.00605 -0.082801,0.039413 -0.00619,0.085011 0.031641,0.1631738 0.049375,0.2437824 0.018793,0.082967 0.080398,0.2997053 0.038886,0.3570161 C 8.9852534,8.2306617 8.8514914,8.1063923 8.8194882,8.0746653 8.5187582,7.7576654 8.3248082,7.509032 8.0443796,7.1114504 7.925326,6.9337249 7.8111664,6.7259903 7.6659509,6.5025266 7.6315715,6.4409957 7.5770023,6.3693191 7.5716458,6.299682" />
    </g>
  </g>
</svg>
