<svg width="48" height="48" version="1.1" viewBox="0 0 12.7 12.7" xmlns="http://www.w3.org/2000/svg">
 <path d="m6.35 5.6662c0.05508-0.055633 0.12587-0.11182 0.20165-0.088185 0.087432 0.031147 0.14371 0.12499 0.19509 0.20863 0.16881 0.30433 0.35106 0.5986 0.55258 0.87348 0.28003 0.48309 0.56352 0.96449 0.87793 1.4171 0.073041 0.10572 0.15049 0.20707 0.23103 0.30474 0.043534 0.05675 0.10004 0.10516 0.12134 0.18074-0.047-0.00452-0.089111-0.030841-0.1298-0.057038-0.16202-0.10487-0.31668-0.22476-0.46895-0.34847-0.10182-0.08579-0.18844-0.19803-0.30061-0.26583-0.028191-0.019247-0.060558-0.022793-0.092198-0.019391-0.023077 0.038925-0.027358 0.087627-0.02082 0.13375 0.016177 0.13406 0.058893 0.26059 0.098735 0.38657 0.00846 0.024054 0.00785 0.050394 0.00822 0.076014-0.05711 0.013431-0.10909-0.02562-0.15763-0.055633-0.17285-0.12272-0.33-0.27501-0.47597-0.4395-0.14405-0.16164-0.2987-0.31295-0.47084-0.43043-0.035938-0.019535-0.080305-0.055201-0.11885-0.030445-0.01784 0.039069 0.00607 0.084656 0.018082 0.1223 0.062933 0.14706 0.14834 0.27827 0.22067 0.41869 0.12873 0.24572 0.25602 0.4947 0.34892 0.76307-0.19605-0.18303-0.38509-0.37638-0.57008-0.57482-0.1374-0.14254-0.26576-0.29725-0.40792-0.43313-0.07065-0.064815-0.14667-0.13049-0.23696-0.14735-0.08958-0.017122-0.1775 0.024486-0.25494 0.073889-0.10456 0.069082-0.20187 0.15215-0.29955 0.23411-0.093136 0.082387-0.18844 0.16335-0.26968 0.26257-0.043655 0.066094-0.12503 0.084224-0.19034 0.061988-0.056623-0.01741-0.076734-0.094972-0.13015-0.11861-0.058757-0.028447-0.1255-0.00736-0.1788 0.028032-0.12086 0.084494-0.24149 0.16971-0.36307 0.25307 0.3513-0.40934 0.70307-0.81811 1.0485-1.2344 0.31359-0.37791 0.62575-0.75854 0.91292-1.1655 0.097434-0.1332 0.19034-0.27233 0.30146-0.3901" fill="#fff" opacity=".75"/>
 <path d="m7.6145 6.5924c0.1913-0.1758 0.39114-0.35272 0.58279-0.52783 0.24828 0.42165 0.5151 0.82902 0.80026 1.2184 0.14121 0.19256 0.29217 0.37509 0.44492 0.55558 0.19617 0.23624 0.38757 0.47769 0.57578 0.72258 0.06495 0.087352 0.1387 0.16551 0.20116 0.25533-0.02153-0.00851-0.04272-0.017855-0.06174-0.032005-0.11789-0.087073-0.23198-0.18101-0.3488-0.26988-0.15917-0.10947-0.29894-0.25107-0.45312-0.36919-0.094226-0.073341-0.18987-0.14972-0.29943-0.18858-0.030218-0.010033-0.078277-0.00605-0.082801 0.039413-0.00619 0.085011 0.031641 0.16317 0.049375 0.24378 0.018793 0.082967 0.080398 0.29971 0.038886 0.35702-0.076481-0.016566-0.21024-0.14084-0.24225-0.17256-0.30073-0.317-0.49468-0.56563-0.77511-0.96321-0.11905-0.17773-0.23321-0.38546-0.37843-0.60892-0.034379-0.061531-0.088949-0.13321-0.094305-0.20284" fill="#fff" opacity=".75"/>
</svg>
