<?xml version="1.0" encoding="UTF-8" standalone="no"?>
<svg
   width="50"
   height="34"
   version="1.1"
   viewBox="0 0 50 34"
   id="svg6"
   sodipodi:docname="toggle-on.svg"
   inkscape:version="1.4 (e7c3feb100, 2024-10-09)"
   xmlns:inkscape="http://www.inkscape.org/namespaces/inkscape"
   xmlns:sodipodi="http://sodipodi.sourceforge.net/DTD/sodipodi-0.dtd"
   xmlns="http://www.w3.org/2000/svg"
   xmlns:svg="http://www.w3.org/2000/svg">
  <defs
     id="defs10">
    <filter
       inkscape:collect="always"
       style="color-interpolation-filters:sRGB"
       id="filter1"
       x="-0.075"
       y="-0.075"
       width="1.15"
       height="1.15">
      <feGaussianBlur
         inkscape:collect="always"
         stdDeviation="0.9375"
         id="feGaussianBlur1" />
    </filter>
  </defs>
  <sodipodi:namedview
     id="namedview8"
     pagecolor="#ffffff"
     bordercolor="#666666"
     borderopacity="1.0"
     inkscape:showpageshadow="2"
     inkscape:pageopacity="0.0"
     inkscape:pagecheckerboard="0"
     inkscape:deskcolor="#d1d1d1"
     showgrid="true"
     inkscape:zoom="5.6568543"
     inkscape:cx="-17.766058"
     inkscape:cy="3.1819805"
     inkscape:window-width="1920"
     inkscape:window-height="1011"
     inkscape:window-x="0"
     inkscape:window-y="0"
     inkscape:window-maximized="1"
     inkscape:current-layer="svg6">
    <inkscape:grid
       type="xygrid"
       id="grid217"
       originx="0"
       originy="0"
       spacingy="1"
       spacingx="1"
       units="px" />
  </sodipodi:namedview>
  <circle
     cx="33"
     cy="17"
     r="15"
     fill="#ffffff"
     id="circle1"
     style="opacity:0.35;fill:#7c4dff;fill-opacity:1;stroke-width:2.49999;filter:url(#filter1)" />
  <rect
     x="2"
     y="6"
     width="42"
     height="20"
     ry="10"
     fill="#5657f5"
     id="rect2-0"
     style="opacity:0.35;fill:#7c4dff;fill-opacity:1;stroke-width:1.20761"
     rx="10" />
  <circle
     cx="33"
     cy="16"
     r="15"
     fill="#ffffff"
     id="circle4-9"
     style="fill:#7c4dff;fill-opacity:1;stroke-width:2.49999" />
  <path
     id="rect1161"
     style="fill:#ffffff;fill-opacity:1;fill-rule:evenodd;stroke-width:2.19089;stroke-linecap:round;stroke-linejoin:round;paint-order:stroke fill markers;stop-color:#000000"
     d="m 37.953183,12.424496 c -0.12781,-4e-6 -0.25558,0.04855 -0.35351,0.146485 l -5.79763,5.797626 -3.399863,-3.401842 c -0.195868,-0.195868 -0.513117,-0.195868 -0.708984,0 -0.195868,0.195868 -0.195868,0.513116 -1e-6,0.708985 l 3.755358,3.753378 c 0.0245,0.02448 0.0504,0.04611 0.0782,0.06443 0.0277,0.01838 0.0578,0.03268 0.0879,0.04491 0.0301,0.01225 0.0603,0.02122 0.0918,0.02734 0.0315,0.0061 0.0637,0.0098 0.0957,0.0098 0.032,0 0.0642,-0.0036 0.0957,-0.0098 0.0315,-0.0061 0.0617,-0.0151 0.0918,-0.02734 0.0301,-0.01223 0.0602,-0.02656 0.0879,-0.04491 0.0137,-0.0091 0.0261,-0.02071 0.0391,-0.03127 0.0131,-0.01071 0.0268,-0.02099 0.039,-0.03323 l 6.15114,-6.151142 c 0.19588,-0.195877 0.19588,-0.511171 1e-5,-0.707039 -0.0979,-0.09793 -0.22571,-0.146485 -0.35352,-0.146485 z"
     sodipodi:nodetypes="csccscccccsccccssscc" />
</svg>
