<?xml version="1.0" encoding="UTF-8" standalone="no"?>
<svg
   width="46"
   height="30"
   version="1.1"
   viewBox="0 0 46 30"
   id="svg6"
   sodipodi:docname="toggle-on.svg"
   inkscape:version="1.2.2 (b0a8486541, 2022-12-01)"
   xmlns:inkscape="http://www.inkscape.org/namespaces/inkscape"
   xmlns:sodipodi="http://sodipodi.sourceforge.net/DTD/sodipodi-0.dtd"
   xmlns="http://www.w3.org/2000/svg"
   xmlns:svg="http://www.w3.org/2000/svg">
  <defs
     id="defs10">
    <filter
       inkscape:collect="always"
       style="color-interpolation-filters:sRGB"
       id="filter3052"
       x="-0.108"
       y="-0.108"
       width="1.216"
       height="1.216">
      <feGaussianBlur
         inkscape:collect="always"
         stdDeviation="1.08"
         id="feGaussianBlur3054" />
    </filter>
  </defs>
  <sodipodi:namedview
     id="namedview8"
     pagecolor="#ffffff"
     bordercolor="#666666"
     borderopacity="1.0"
     inkscape:showpageshadow="2"
     inkscape:pageopacity="0.0"
     inkscape:pagecheckerboard="0"
     inkscape:deskcolor="#d1d1d1"
     showgrid="true"
     inkscape:zoom="8.0000001"
     inkscape:cx="14.75"
     inkscape:cy="2.5"
     inkscape:window-width="1920"
     inkscape:window-height="1016"
     inkscape:window-x="0"
     inkscape:window-y="32"
     inkscape:window-maximized="1"
     inkscape:current-layer="svg6">
    <inkscape:grid
       type="xygrid"
       id="grid217"
       originx="0"
       originy="0" />
  </sodipodi:namedview>
  <g
     id="g2568"
     transform="translate(3,3)">
    <circle
       cx="28"
       cy="13"
       r="12"
       fill="#ffffff"
       id="circle2570"
       style="opacity:0.25;fill:#413fc0;fill-opacity:1;stroke-width:1.99999;filter:url(#filter3052)" />
    <rect
       x="8.8817842e-16"
       y="4"
       width="36"
       height="16"
       ry="8"
       fill="#5657f5"
       id="rect2"
       style="opacity:0.35;fill:#7c4dff;fill-opacity:1;stroke-width:0.999998"
       rx="8" />
    <circle
       cx="28"
       cy="12"
       r="12"
       fill="#ffffff"
       id="circle4"
       style="fill:#7c4dff;fill-opacity:1;stroke-width:1.99999" />
    <path
       id="rect1161"
       style="opacity:1;fill:#ffffff;fill-opacity:1;fill-rule:evenodd;stroke-width:2.19089;stroke-linecap:round;stroke-linejoin:round;paint-order:stroke fill markers;stop-color:#000000"
       d="m 33.151142,8.0558889 c -0.127813,-3.5e-6 -0.255582,0.048551 -0.353516,0.1464851 L 27,14 23.600137,10.598158 c -0.195868,-0.195868 -0.513116,-0.195868 -0.708984,0 -0.195868,0.195868 -0.195868,0.513116 -10e-7,0.708985 l 3.755359,3.753378 c 0.02448,0.02448 0.05035,0.04611 0.07815,0.06443 0.02772,0.01838 0.05781,0.03268 0.08789,0.04491 0.03008,0.01225 0.06031,0.02122 0.0918,0.02734 0.03148,0.0061 0.06375,0.0098 0.0957,0.0098 0.03195,0 0.06423,-0.0036 0.0957,-0.0098 0.03148,-0.0061 0.06171,-0.0151 0.0918,-0.02734 0.03008,-0.01223 0.06015,-0.02656 0.08789,-0.04491 0.01374,-0.0091 0.02609,-0.02071 0.03905,-0.03127 0.01312,-0.01071 0.02679,-0.02099 0.03903,-0.03323 l 6.151143,-6.151142 c 0.195873,-0.1958767 0.195873,-0.5111713 5e-6,-0.7070391 C 33.406739,8.1043364 33.278962,8.055785 33.151153,8.055785 Z"
       sodipodi:nodetypes="csccscccccsccccssscc" />
  </g>
</svg>
