<svg width="1920pt" height="1080pt" style="isolation:isolate" version="1.1" viewBox="0 0 1920 1080" xmlns="http://www.w3.org/2000/svg" xmlns:xlink="http://www.w3.org/1999/xlink">
 <defs>
  <linearGradient id="a">
   <stop stop-color="#716ffb" offset="0"/>
   <stop stop-color="#4648fb" offset="1"/>
  </linearGradient>
  <linearGradient id="d" x1="1714.5" x2="1714.5" y1="192.31" y2="1195" gradientTransform="scale(1.3333)" gradientUnits="userSpaceOnUse" xlink:href="#a"/>
  <linearGradient id="c" x1="250.24" x2="250.24" y1="-128" y2="381.04" gradientTransform="scale(1.3333)" gradientUnits="userSpaceOnUse" xlink:href="#a"/>
  <linearGradient id="b" x1="347.19" x2="347.19" y1="980" y2="1270.8" gradientTransform="scale(1.3333)" gradientUnits="userSpaceOnUse" xlink:href="#a"/>
  <filter id="f" x="-.11355" y="-.08315" width="1.2271" height="1.1663" color-interpolation-filters="sRGB">
   <feGaussianBlur stdDeviation="41.00657"/>
  </filter>
  <filter id="e" x="-.065212" y="-.18186" width="1.1304" height="1.3637" color-interpolation-filters="sRGB">
   <feGaussianBlur stdDeviation="10.103496"/>
  </filter>
  <filter id="g" x="-.080632" y="-.11861" width="1.1613" height="1.2372" color-interpolation-filters="sRGB">
   <feGaussianBlur stdDeviation="25.107019"/>
  </filter>
 </defs>
 <rect width="1920" height="1080" fill="#25252d"/>
 <path transform="scale(.75)" d="m2436.1 256.41c-41.093 0.16572-84.245 5.3615-129.45 15.588-206.67 46.751-386.04 205.54-366.67 393.33s266.67 201.33 366.67 318.67c100.55 117.98 70.607 259.15 0 309.33-125.75 89.371-274.79 61.601-318.67-28-58.707-119.88-193.91-139.55-262.67-65.334-43.515 46.969-42 154.55 0 216 5.2167 7.6332 12.69 15.635 22.394 24h812.27v-1167.1c-38.977-11.156-80.269-16.652-123.88-16.477z" filter="url(#f)" opacity=".35" stroke-width="1.3333"/>
 <path transform="scale(.75)" d="m2436.1 256.41c-41.093 0.16572-84.245 5.3615-129.45 15.588-206.67 46.751-386.04 205.54-366.67 393.33s266.67 201.33 366.67 318.67c100.55 117.98 70.607 259.15 0 309.33-125.75 89.371-274.79 61.601-318.67-28-58.707-119.88-193.91-139.55-262.67-65.334-43.515 46.969-42 154.55 0 216 5.2167 7.6332 12.69 15.635 22.394 24h812.27v-1167.1c-38.977-11.156-80.269-16.652-123.88-16.477z" fill="url(#d)" stroke-width="1.3333"/>
 <path transform="scale(.75)" d="m0 0v484.69c50.925 45.477 137.14 22.749 170.67-52.689 42.667-96 26.667-133.33 144-160 117.33-26.667 208 106.67 309.33 96s128-90.667 122.67-224c-2.5342-63.355-24.944-111.35-67.215-144h-679.45z" filter="url(#g)" opacity=".35" stroke-width="1.3333"/>
 <path transform="scale(.75)" d="m0 0v484.69c50.925 45.477 152.32 27.8 170.67-52.689 21.633-94.921 43.337-137.49 144-160 107.75-24.097 208 106.67 309.33 96s128-90.667 122.67-224c-2.5342-63.355-24.944-111.35-67.215-144z" fill="url(#c)" stroke-width="1.3333"/>
 <path transform="scale(.75)" d="m588.14 1306.7c-10.859 0.039-21.609 1.2265-32.109 3.7265-75.503 17.977-96.077 74.735-131.42 129.61h371.84c-3.5538-7.5128-7.6887-14.718-12.424-21.606-38.5-56-119.88-112-195.89-111.73z" filter="url(#e)" opacity=".35" stroke-width="1.3333"/>
 <path transform="scale(.75)" d="m588.14 1306.7c-10.859 0.039-21.609 1.2265-32.109 3.7265-75.503 17.977-96.077 74.735-131.42 129.61h371.84c-3.5538-7.5128-7.6887-14.718-12.424-21.606-38.5-56-119.88-112-195.89-111.73z" fill="url(#b)" stroke-width="1.3333"/>
 <path d="m960.06 477a63 63 0 1 0 0 126 63 63 0 0 0 0-126zm22.456 17.56a8.3928 8.3928 0 0 1 6.2501 12.545 8.4077 8.4077 0 1 1-6.2501-12.545zm-22.471 8.8988c3.3929 0 6.6668 0.46155 9.7771 1.3244a11.801 11.801 0 0 0 15.819 9.1669c6.2202 6.116 10.268 14.435 10.863 23.706l-11.979 0.16389a24.569 24.569 0 0 0-34.822-20.089l-5.8483-10.491a36.415 36.415 0 0 1 16.206-3.7799zm-20.268 6.131 6.1608 10.313a24.539 24.539 0 0 0 0 40.195l-6.1608 10.298a36.579 36.579 0 0 1-15.089-21.235 11.771 11.771 0 0 0 0-18.319 36.607 36.607 0 0 1 15.089-21.25zm-22.56 21.994a8.4154 8.4154 0 1 1 0 16.831 8.4079 8.4079 0 0 1 0-16.816zm67.308 10.58 11.979 0.19312a36.429 36.429 0 0 1-10.863 23.691 11.756 11.756 0 0 0-15.819 9.152 36.518 36.518 0 0 1-25.968-2.4405l5.8482-10.476a24.554 24.554 0 0 0 34.822-20.119zm-4.0923 26.578a8.4261 8.4261 0 1 1 2.0536 16.727 8.4261 8.4261 0 0 1-2.0536-16.727z" fill="#fff" opacity=".25" stroke-width="2.8347"/>
</svg>
