<svg width="1920pt" height="1080pt" style="isolation:isolate" version="1.1" viewBox="0 0 1920 1080" xmlns="http://www.w3.org/2000/svg" xmlns:xlink="http://www.w3.org/1999/xlink">
 <defs>
  <linearGradient id="a">
   <stop stop-color="#716ffb" offset="0"/>
   <stop stop-color="#4648fb" offset="1"/>
  </linearGradient>
  <linearGradient id="d" x1="1714.5" x2="1714.5" y1="192.31" y2="1195" gradientTransform="scale(1.3333)" gradientUnits="userSpaceOnUse" xlink:href="#a"/>
  <linearGradient id="c" x1="250.24" x2="250.24" y1="-128" y2="381.04" gradientTransform="scale(1.3333)" gradientUnits="userSpaceOnUse" xlink:href="#a"/>
  <linearGradient id="b" x1="347.19" x2="347.19" y1="980" y2="1270.8" gradientTransform="scale(1.3333)" gradientUnits="userSpaceOnUse" xlink:href="#a"/>
  <filter id="f" x="-.11355" y="-.08315" width="1.2271" height="1.1663" color-interpolation-filters="sRGB">
   <feGaussianBlur stdDeviation="41.00657"/>
  </filter>
  <filter id="e" x="-.065212" y="-.18186" width="1.1304" height="1.3637" color-interpolation-filters="sRGB">
   <feGaussianBlur stdDeviation="10.103496"/>
  </filter>
  <filter id="g" x="-.080632" y="-.11861" width="1.1613" height="1.2372" color-interpolation-filters="sRGB">
   <feGaussianBlur stdDeviation="25.107019"/>
  </filter>
 </defs>
 <rect width="1920" height="1080" fill="#25252d"/>
 <path transform="scale(.75)" d="m2436.1 256.41c-41.093 0.16572-84.245 5.3615-129.45 15.588-206.67 46.751-386.04 205.54-366.67 393.33s266.67 201.33 366.67 318.67c100.55 117.98 70.607 259.15 0 309.33-125.75 89.371-274.79 61.601-318.67-28-58.707-119.88-193.91-139.55-262.67-65.334-43.515 46.969-42 154.55 0 216 5.2167 7.6332 12.69 15.635 22.394 24h812.27v-1167.1c-38.977-11.156-80.269-16.652-123.88-16.477z" filter="url(#f)" opacity=".35" stroke-width="1.3333"/>
 <path transform="scale(.75)" d="m2436.1 256.41c-41.093 0.16572-84.245 5.3615-129.45 15.588-206.67 46.751-386.04 205.54-366.67 393.33s266.67 201.33 366.67 318.67c100.55 117.98 70.607 259.15 0 309.33-125.75 89.371-274.79 61.601-318.67-28-58.707-119.88-193.91-139.55-262.67-65.334-43.515 46.969-42 154.55 0 216 5.2167 7.6332 12.69 15.635 22.394 24h812.27v-1167.1c-38.977-11.156-80.269-16.652-123.88-16.477z" fill="url(#d)" stroke-width="1.3333"/>
 <path transform="scale(.75)" d="m0 0v484.69c50.925 45.477 137.14 22.749 170.67-52.689 42.667-96 26.667-133.33 144-160 117.33-26.667 208 106.67 309.33 96s128-90.667 122.67-224c-2.5342-63.355-24.944-111.35-67.215-144h-679.45z" filter="url(#g)" opacity=".35" stroke-width="1.3333"/>
 <path transform="scale(.75)" d="m0 0v484.69c50.925 45.477 152.32 27.8 170.67-52.689 21.633-94.921 43.337-137.49 144-160 107.75-24.097 208 106.67 309.33 96s128-90.667 122.67-224c-2.5342-63.355-24.944-111.35-67.215-144z" fill="url(#c)" stroke-width="1.3333"/>
 <path transform="scale(.75)" d="m588.14 1306.7c-10.859 0.039-21.609 1.2265-32.109 3.7265-75.503 17.977-96.077 74.735-131.42 129.61h371.84c-3.5538-7.5128-7.6887-14.718-12.424-21.606-38.5-56-119.88-112-195.89-111.73z" filter="url(#e)" opacity=".35" stroke-width="1.3333"/>
 <path transform="scale(.75)" d="m588.14 1306.7c-10.859 0.039-21.609 1.2265-32.109 3.7265-75.503 17.977-96.077 74.735-131.42 129.61h371.84c-3.5538-7.5128-7.6887-14.718-12.424-21.606-38.5-56-119.88-112-195.89-111.73z" fill="url(#b)" stroke-width="1.3333"/>
 <path d="m897 477v37.396h0.0202l-0.0202 13.791h36v-15.749h45v-35.435l-81 0.10011m90-0.10011v125.99h36v-125.99m-81 43.31v82.681h35.999v-82.681m-81 15.749 0.0202 66.937 35.981-4e-3v-66.933" fill="#fff" fill-rule="evenodd" opacity=".25" stroke-width="2.126"/>
</svg>
