<svg width="1920pt" height="1080pt" style="isolation:isolate" version="1.1" viewBox="0 0 1920 1080" xmlns="http://www.w3.org/2000/svg" xmlns:xlink="http://www.w3.org/1999/xlink">
 <defs>
  <linearGradient id="a">
   <stop stop-color="#716ffb" offset="0"/>
   <stop stop-color="#4648fb" offset="1"/>
  </linearGradient>
  <linearGradient id="d" x1="1714.5" x2="1714.5" y1="192.31" y2="1195" gradientTransform="matrix(1 0 0 -1 0 1080)" gradientUnits="userSpaceOnUse" xlink:href="#a"/>
  <linearGradient id="c" x1="250.24" x2="250.24" y1="-128" y2="381.04" gradientTransform="matrix(1,0,0,-1,0,1080)" gradientUnits="userSpaceOnUse" xlink:href="#a"/>
  <linearGradient id="b" x1="347.19" x2="347.19" y1="980" y2="1270.8" gradientTransform="matrix(1 0 0 -1 156.15 1080)" gradientUnits="userSpaceOnUse" xlink:href="#a"/>
  <filter id="g" x="-.22152" y="-.16222" width="1.443" height="1.3244" color-interpolation-filters="sRGB">
   <feGaussianBlur stdDeviation="60"/>
  </filter>
  <filter id="f" x="-.25692" y="-.37724" width="1.5138" height="1.7545" color-interpolation-filters="sRGB">
   <feGaussianBlur stdDeviation="60"/>
  </filter>
  <filter id="e" x="-.51635" y="-1.44" width="2.0327" height="3.88" color-interpolation-filters="sRGB">
   <feGaussianBlur stdDeviation="60"/>
  </filter>
 </defs>
 <rect width="1920" height="1080" fill="#e7e7fd"/>
 <path d="m1827.1 887.69c-30.82-0.1243-63.184-4.0211-97.09-11.691-155-35.063-289.53-154.16-275-295s200-151 275-239c75.416-88.488 52.955-194.36 0-232-94.309-67.028-206.09-46.201-239 21-44.03 89.909-145.43 104.66-197 49-32.636-35.227-31.5-115.91 0-162 3.9125-5.7249 9.5177-11.726 16.796-18h609.2v875.33c-29.233 8.3671-60.201 12.489-92.911 12.357z" filter="url(#g)" opacity=".25"/>
 <path d="m1827.1 887.69c-30.82-0.1243-63.184-4.0211-97.09-11.691-155-35.063-289.53-154.16-275-295s200-151 275-239c75.416-88.488 52.955-194.36 0-232-94.309-67.028-206.09-46.201-239 21-44.03 89.909-145.43 104.66-197 49-32.636-35.227-31.5-115.91 0-162 3.9125-5.7249 9.5177-11.726 16.796-18h609.2v875.33c-29.233 8.3671-60.201 12.489-92.911 12.357z" fill="url(#d)"/>
 <path d="m0 1080v-363.52c38.193-34.108 110.6-19.904 128 39.517 21.079 72 37.923 108 108 120 83.742 14.34 156-80 232-72s96 68 92 168c-1.9006 47.516-18.708 83.513-50.411 108z" filter="url(#f)" opacity=".25"/>
 <path d="m0 1080v-363.52c38.193-34.108 110.6-19.904 128 39.517 21.079 72 37.923 108 108 120 83.742 14.34 156-80 232-72s96 68 92 168c-1.9006 47.516-18.708 83.513-50.411 108z" fill="url(#c)"/>
 <path d="m597.25 99.999c-8.1445-0.0292-16.207-0.91986-24.082-2.7949-56.628-13.483-72.058-56.051-98.563-97.204h278.88c-2.6654 5.6346-5.7665 11.038-9.3179 16.204-28.875 42-89.906 84-146.92 83.795z" filter="url(#e)" opacity=".25"/>
 <path d="m597.25 99.999c-8.1445-0.0292-16.207-0.91986-24.082-2.7949-56.628-13.483-72.058-56.051-98.563-97.204h278.88c-2.6654 5.6346-5.7665 11.038-9.3179 16.204-28.875 42-89.906 84-146.92 83.795z" fill="url(#b)"/>
 <path d="m960 477c-5.6096 13.749-8.9869 22.751-15.237 36.083 3.8249 4.0621 8.5265 8.779 16.159 14.136-8.1986-3.3776-13.808-6.7702-17.989-10.297-7.9895 16.68-20.504 40.428-45.918 86.078 19.968-11.517 35.458-18.629 49.877-21.337a36.559 36.559 0 0 1-0.9381-8.5556v-0.63951c0.3278-12.796 6.9781-22.632 14.865-21.962 7.886 0.66964 14.001 11.591 13.689 24.373a36.113 36.113 0 0 1-0.80599 6.8744c14.269 2.7974 29.581 9.88 49.281 21.248-3.8842-7.1421-7.3512-13.585-10.669-19.73-5.2073-4.0473-10.653-9.2997-21.739-14.999 7.6185 1.979 13.094 4.2704 17.335 6.8297-33.658-62.672-36.381-71.005-47.927-98.101z" fill-rule="evenodd" opacity=".15" stroke-width="2.8348" style="isolation:isolate"/>
</svg>
