<svg width="1920pt" height="1080pt" style="isolation:isolate" version="1.1" viewBox="0 0 1920 1080" xmlns="http://www.w3.org/2000/svg" xmlns:xlink="http://www.w3.org/1999/xlink">
 <defs>
  <linearGradient id="a">
   <stop stop-color="#716ffb" offset="0"/>
   <stop stop-color="#4648fb" offset="1"/>
  </linearGradient>
  <linearGradient id="d" x1="1714.5" x2="1714.5" y1="192.31" y2="1195" gradientTransform="matrix(1 0 0 -1 0 1080)" gradientUnits="userSpaceOnUse" xlink:href="#a"/>
  <linearGradient id="c" x1="250.24" x2="250.24" y1="-128" y2="381.04" gradientTransform="matrix(1,0,0,-1,0,1080)" gradientUnits="userSpaceOnUse" xlink:href="#a"/>
  <linearGradient id="b" x1="347.19" x2="347.19" y1="980" y2="1270.8" gradientTransform="matrix(1 0 0 -1 156.15 1080)" gradientUnits="userSpaceOnUse" xlink:href="#a"/>
  <filter id="g" x="-.22152" y="-.16222" width="1.443" height="1.3244" color-interpolation-filters="sRGB">
   <feGaussianBlur stdDeviation="60"/>
  </filter>
  <filter id="f" x="-.25692" y="-.37724" width="1.5138" height="1.7545" color-interpolation-filters="sRGB">
   <feGaussianBlur stdDeviation="60"/>
  </filter>
  <filter id="e" x="-.51635" y="-1.44" width="2.0327" height="3.88" color-interpolation-filters="sRGB">
   <feGaussianBlur stdDeviation="60"/>
  </filter>
 </defs>
 <rect width="1920" height="1080" fill="#e7e7fd"/>
 <path d="m1827.1 887.69c-30.82-0.1243-63.184-4.0211-97.09-11.691-155-35.063-289.53-154.16-275-295s200-151 275-239c75.416-88.488 52.955-194.36 0-232-94.309-67.028-206.09-46.201-239 21-44.03 89.909-145.43 104.66-197 49-32.636-35.227-31.5-115.91 0-162 3.9125-5.7249 9.5177-11.726 16.796-18h609.2v875.33c-29.233 8.3671-60.201 12.489-92.911 12.357z" filter="url(#g)" opacity=".25"/>
 <path d="m1827.1 887.69c-30.82-0.1243-63.184-4.0211-97.09-11.691-155-35.063-289.53-154.16-275-295s200-151 275-239c75.416-88.488 52.955-194.36 0-232-94.309-67.028-206.09-46.201-239 21-44.03 89.909-145.43 104.66-197 49-32.636-35.227-31.5-115.91 0-162 3.9125-5.7249 9.5177-11.726 16.796-18h609.2v875.33c-29.233 8.3671-60.201 12.489-92.911 12.357z" fill="url(#d)"/>
 <path d="m0 1080v-363.52c38.193-34.108 110.6-19.904 128 39.517 21.079 72 37.923 108 108 120 83.742 14.34 156-80 232-72s96 68 92 168c-1.9006 47.516-18.708 83.513-50.411 108z" filter="url(#f)" opacity=".25"/>
 <path d="m0 1080v-363.52c38.193-34.108 110.6-19.904 128 39.517 21.079 72 37.923 108 108 120 83.742 14.34 156-80 232-72s96 68 92 168c-1.9006 47.516-18.708 83.513-50.411 108z" fill="url(#c)"/>
 <path d="m597.25 99.999c-8.1445-0.0292-16.207-0.91986-24.082-2.7949-56.628-13.483-72.058-56.051-98.563-97.204h278.88c-2.6654 5.6346-5.7665 11.038-9.3179 16.204-28.875 42-89.906 84-146.92 83.795z" filter="url(#e)" opacity=".25"/>
 <path d="m597.25 99.999c-8.1445-0.0292-16.207-0.91986-24.082-2.7949-56.628-13.483-72.058-56.051-98.563-97.204h278.88c-2.6654 5.6346-5.7665 11.038-9.3179 16.204-28.875 42-89.906 84-146.92 83.795z" fill="url(#b)"/>
 <path d="m960.06 477a63 63 0 1 0 0 126 63 63 0 0 0 0-126zm22.456 17.56a8.3928 8.3928 0 0 1 6.2501 12.545 8.4077 8.4077 0 1 1-6.2501-12.545zm-22.471 8.8988c3.3929 0 6.6668 0.46155 9.7771 1.3244a11.801 11.801 0 0 0 15.819 9.1669c6.2202 6.116 10.268 14.435 10.863 23.706l-11.979 0.16389a24.569 24.569 0 0 0-34.822-20.089l-5.8483-10.491a36.415 36.415 0 0 1 16.206-3.7799zm-20.268 6.131 6.1608 10.313a24.539 24.539 0 0 0 0 40.195l-6.1608 10.298a36.579 36.579 0 0 1-15.089-21.235 11.771 11.771 0 0 0 0-18.319 36.607 36.607 0 0 1 15.089-21.25zm-22.56 21.994a8.4155 8.4155 0 1 1 0 16.831 8.408 8.408 0 0 1 0-16.816zm67.308 10.58 11.979 0.19312a36.429 36.429 0 0 1-10.863 23.691 11.756 11.756 0 0 0-15.819 9.152 36.518 36.518 0 0 1-25.968-2.4405l5.8482-10.476a24.554 24.554 0 0 0 34.822-20.119zm-4.0923 26.578a8.4263 8.4263 0 1 1 2.0536 16.727 8.4263 8.4263 0 0 1-2.0536-16.727z" opacity=".15" stroke-width="2.8347" style="isolation:isolate"/>
</svg>
